<svg xmlns="http://www.w3.org/2000/svg" xmlns:xlink="http://www.w3.org/1999/xlink" width="40" zoomAndPan="magnify" viewBox="0 0 30 30.000001" height="40" preserveAspectRatio="xMidYMid meet" version="1.0"><defs><filter x="0%" y="0%" width="100%" height="100%" id="f7e664de9d"><feColorMatrix values="0 0 0 0 1 0 0 0 0 1 0 0 0 0 1 0 0 0 1 0" color-interpolation-filters="sRGB"/></filter><clipPath id="723a1e74e8"><path d="M 0.484375 1 L 29.515625 1 L 29.515625 29 L 0.484375 29 Z M 0.484375 1 " clip-rule="nonzero"/></clipPath><mask id="ac07b9c438"><g filter="url(#f7e664de9d)"><rect x="-3" width="36" fill="#000000" y="-3" height="36.000001" fill-opacity="0.85"/></g></mask><clipPath id="1c300efcf1"><path d="M 0.714844 0.160156 L 29.285156 0.160156 L 29.285156 27 L 0.714844 27 Z M 0.714844 0.160156 " clip-rule="nonzero"/></clipPath><clipPath id="b108630996"><rect x="0" width="30" y="0" height="28"/></clipPath></defs><g clip-path="url(#723a1e74e8)"><g mask="url(#ac07b9c438)"><g transform="matrix(1, 0, 0, 1, 0, 1)"><g clip-path="url(#b108630996)"><g clip-path="url(#1c300efcf1)"><path fill="#ffffff" d="M 1.382812 0.878906 L 0.816406 1.523438 L 14.253906 15.046875 L 15.640625 15.046875 L 29.09375 1.507812 L 28.460938 0.871094 L 27.832031 0.234375 L 21.386719 6.675781 L 14.945312 13.117188 L 8.507812 6.675781 C 4.964844 3.132812 2.042969 0.238281 2.011719 0.238281 C 1.980469 0.238281 1.699219 0.527344 1.382812 0.878906 M 1.382812 12.769531 L 0.816406 13.414062 L 14.253906 26.9375 L 15.640625 26.9375 L 29.09375 13.398438 L 28.460938 12.761719 L 27.832031 12.125 L 21.386719 18.5625 L 14.945312 25.003906 L 8.507812 18.566406 C 4.964844 15.023438 2.042969 12.125 2.011719 12.125 C 1.980469 12.125 1.699219 12.414062 1.382812 12.769531 " fill-opacity="1" fill-rule="evenodd"/></g></g></g></g></g></svg>